<?xml version="1.0" standalone="no"?>
<svg xmlns:xlink="http://www.w3.org/1999/xlink" id="wave" style="transform:rotate(180deg); transition: 0.3s" viewBox="0 0 1440 490" version="1.1" xmlns="http://www.w3.org/2000/svg"><defs><linearGradient id="sw-gradient-0" x1="0" x2="0" y1="1" y2="0"><stop stop-color="rgba(0, 58, 107, 1)" offset="0%"/><stop stop-color="rgba(0, 165, 233, 1)" offset="100%"/></linearGradient></defs><path style="transform:translate(0, 0px); opacity:1" fill="url(#sw-gradient-0)" d="M0,196L60,204.2C120,212,240,229,360,236.8C480,245,600,245,720,220.5C840,196,960,147,1080,163.3C1200,180,1320,261,1440,285.8C1560,310,1680,278,1800,277.7C1920,278,2040,310,2160,294C2280,278,2400,212,2520,228.7C2640,245,2760,343,2880,334.8C3000,327,3120,212,3240,147C3360,82,3480,65,3600,81.7C3720,98,3840,147,3960,204.2C4080,261,4200,327,4320,318.5C4440,310,4560,229,4680,196C4800,163,4920,180,5040,204.2C5160,229,5280,261,5400,294C5520,327,5640,359,5760,359.3C5880,359,6000,327,6120,334.8C6240,343,6360,392,6480,400.2C6600,408,6720,376,6840,359.3C6960,343,7080,343,7200,302.2C7320,261,7440,180,7560,138.8C7680,98,7800,98,7920,114.3C8040,131,8160,163,8280,147C8400,131,8520,65,8580,32.7L8640,0L8640,490L8580,490C8520,490,8400,490,8280,490C8160,490,8040,490,7920,490C7800,490,7680,490,7560,490C7440,490,7320,490,7200,490C7080,490,6960,490,6840,490C6720,490,6600,490,6480,490C6360,490,6240,490,6120,490C6000,490,5880,490,5760,490C5640,490,5520,490,5400,490C5280,490,5160,490,5040,490C4920,490,4800,490,4680,490C4560,490,4440,490,4320,490C4200,490,4080,490,3960,490C3840,490,3720,490,3600,490C3480,490,3360,490,3240,490C3120,490,3000,490,2880,490C2760,490,2640,490,2520,490C2400,490,2280,490,2160,490C2040,490,1920,490,1800,490C1680,490,1560,490,1440,490C1320,490,1200,490,1080,490C960,490,840,490,720,490C600,490,480,490,360,490C240,490,120,490,60,490L0,490Z"/></svg>